:SAMPLES-PER-SECOND 30
:FULLY-SPECIFIED
:DEGREES
432
root  81.2615 37.8718 2.25223 -1.30098 62.999 -1.35406
RightUpLeg  6.27559 10.5134 0.475683
RightLeg  19.0615 4.71812 -0.299996
RightFoot  -20.1302 -0.169299 -0.387139
RightToes  -3.31784e-009 0 -3.6325e-017
Spine  3.85575 6.66271 15.4694
Spine1  2.9366 9.12113 -9.69897
HEad  -9.15388 -3.60369 -2.98894
LeftShoulder1  1.76813 -0.473649 -38.2742
LeftArm  -3.10563 15.8086 -36.9333
LeftForeArm  32.9354 -7.94527 -8.82458
LeftHand  -0.102261 10.3883 -1.00784
RightShoulder  0.0892318 -3.20782 11.0959
RightArm  -1.56695 -15.1609 63.9645
RightForeArm  23.2517 4.41664 2.32322
RightHand  -0.0431882 0.201897 -0.882197
LeftUpLeg  -20.5375 -2.39391 7.54445
LeftLeg  22.2051 -23.1669 -9.73818
LeftFoot  -1.40894 -0.128808 1.57622
LeftToes  1.28511e-009 -3.60458e-011 6.16399e-011
433
root  81.905 38.112 1.87028 -0.356556 56.5183 0.122009
RightUpLeg  5.46442 14.1995 -1.79296
RightLeg  20.1278 1.40789 0.299623
RightFoot  -18.1089 0.0160233 2.3874
RightToes  -3.31784e-009 0 -3.6325e-017
Spine  5.78807 6.09185 15.6263
Spine1  3.26234 9.28208 -11.8715
HEad  -11.3301 -4.46261 -2.93289
LeftShoulder1  1.74396 -0.415164 -38.352
LeftArm  -2.09111 14.4021 -36.2727
LeftForeArm  36.0563 -6.26395 -9.59437
LeftHand  -0.138783 10.4235 -1.80158
RightShoulder  -0.110875 -2.64753 3.0707
RightArm  -6.7357 -19.5984 71.388
RightForeArm  22.022 6.74664 1.24064
RightHand  0.00159284 -0.497226 0.154356
LeftUpLeg  -17.817 0.399642 6.24533
LeftLeg  21.0656 -19.7013 -7.86447
LeftFoot  -1.4884 -0.39757 4.70247
LeftToes  1.28511e-009 -3.60458e-011 6.16399e-011
434
root  82.6848 38.3768 1.41777 0.0984821 49.2895 1.06293
RightUpLeg  4.44953 10.9912 -5.33655
RightLeg  19.9858 2.29517 0.727227
RightFoot  -15.5827 0.0640973 4.49514
RightToes  -3.31784e-009 0 -3.6325e-017
Spine  6.99444 4.28668 13.369
Spine1  3.16382 7.94521 -14.2828
HEad  -15.2872 -6.21588 0.292637
LeftShoulder1  1.53102 -0.242412 -34.5823
LeftArm  -1.61251 16.5431 -37.7518
LeftForeArm  36.1988 -8.4753 -9.12741
LeftHand  -0.138927 10.532 -1.76427
RightShoulder  -1.01064 3.02023 -27.9925
RightArm  -15.6293 -19.4643 103.256
RightForeArm  14.9246 5.36314 1.27416
RightHand  -0.0022569 1.3639 -0.366663
LeftUpLeg  -14.8893 3.05452 4.80959
LeftLeg  19.3832 -15.4923 -5.64064
LeftFoot  -1.30922 -0.596544 6.87755
LeftToes  1.28511e-009 -3.60458e-011 6.16399e-011
435
root  83.5418 38.5952 0.944184 0.183369 40.0725 2.12408
RightUpLeg  3.18636 6.17638 -9.36393
RightLeg  19.5124 3.61048 1.21189
RightFoot  -13.3861 0.0027864 5.27427
RightToes  -3.31784e-009 0 -3.6325e-017
Spine  8.41997 2.0267 8.03638
Spine1  1.54334 5.44435 -15.5936
HEad  -18.7841 -8.6793 5.45969
LeftShoulder1  1.07413 0.21534 -26.7423
LeftArm  -5.12192 23.7446 -43.9719
LeftForeArm  32.9767 -12.697 -6.61445
LeftHand  -0.103807 10.9764 -0.864157
RightShoulder  -1.4577 -0.0306388 -60.6291
RightArm  -12.4845 -9.04313 130.681
RightForeArm  10.289 3.31319 5.81096
RightHand  0.0341345 5.19241 0.253786
LeftUpLeg  -11.393 6.0371 3.14027
LeftLeg  17.5586 -9.85617 -3.13786
LeftFoot  -1.66689 -0.701589 8.39949
LeftToes  1.28511e-009 -3.60458e-011 6.16399e-011
436
root  84.2506 38.7018 0.654751 1.86982 30.0946 2.60172
RightUpLeg  -1.347 0.119819 -12.0058
RightLeg  20.1592 2.76076 0.912424
RightFoot  -11.5487 -0.0661471 6.12125
RightToes  -3.31784e-009 0 -3.6325e-017
Spine  8.10385 1.64813 6.16379
Spine1  -0.57891 4.90739 -17.2152
HEad  -19.4541 -11.5943 8.30453
LeftShoulder1  0.927646 0.204512 -21.7641
LeftArm  -7.66003 29.1016 -49.1242
LeftForeArm  29.1978 -15.906 -4.98399
LeftHand  -0.098557 10.9949 -0.762542
RightShoulder  3.65276 -10.0638 -68.8062
RightArm  -3.15121 -6.34942 134.715
RightForeArm  7.40688 3.48971 13.4241
RightHand  -0.23324 7.74432 -2.48531
LeftUpLeg  -10.8629 10.5366 2.18139
LeftLeg  16.8687 -4.23594 -1.80245
LeftFoot  -2.82705 -0.672031 9.23302
LeftToes  1.28511e-009 -3.60458e-011 6.16399e-011
437
root  84.9088 38.8549 0.424642 1.46456 20.8047 2.20453
RightUpLeg  -3.5086 -7.56621 -12.2853
RightLeg  19.6066 -0.200358 -0.273842
RightFoot  -8.64483 -0.18795 5.58381
RightToes  -3.31784e-009 0 -3.6325e-017
Spine  8.38441 1.5452 4.76932
Spine1  -0.0453242 4.51641 -15.3322
HEad  -19.3789 -12.6471 8.08053
LeftShoulder1  0.607516 1.46998 -23.3308
LeftArm  -5.809 29.4285 -48.4072
LeftForeArm  25.3595 -18.2973 -4.4651
LeftHand  -0.0616441 10.9755 -0.0219024
RightShoulder  5.29126 -12.766 -68.3699
RightArm  -4.49703 -5.43901 133.692
RightForeArm  10.2849 4.10955 11.5308
RightHand  -0.195644 6.75375 -2.20787
LeftUpLeg  -8.52882 12.7176 2.39024
LeftLeg  15.6743 2.5586 -0.850931
LeftFoot  -3.2084 -0.720098 10.3648
LeftToes  1.28511e-009 -3.60458e-011 6.16399e-011
438
root  85.5326 38.9852 0.232022 1.3567 11.6694 1.90836
RightUpLeg  -5.73139 -16.0804 -11.2578
RightLeg  18.5205 -4.67961 -1.97794
RightFoot  -6.14261 -0.235902 4.26341
RightToes  -3.31784e-009 0 -3.6325e-017
Spine  7.79575 1.50704 3.44892
Spine1  1.63383 4.07416 -12.5674
HEad  -18.6729 -11.2218 5.65039
LeftShoulder1  0.21825 2.76674 -27.0577
LeftArm  -0.23261 27.8903 -44.737
LeftForeArm  19.8904 -20.4281 -4.32599
LeftHand  -0.0409986 10.4013 0.340733
RightShoulder  6.00389 -15.6924 -63.1417
RightArm  -2.08213 -5.18356 129.425
RightForeArm  11.9966 8.03995 9.87023
RightHand  -0.151734 6.41872 -1.90645
LeftUpLeg  -6.51597 13.573 2.59978
LeftLeg  14.4955 10.7411 -0.186874
LeftFoot  -3.83322 -0.653923 10.2901
LeftToes  1.28511e-009 -3.60458e-011 6.16399e-011
439
root  86.1127 39.054 0.119759 0.852482 3.12427 1.87558
RightUpLeg  -6.92628 -30.5801 -10.1136
RightLeg  17.1191 -2.988 -1.20008
RightFoot  -5.35252 -0.186706 2.85161
RightToes  -3.31784e-009 0 -3.6325e-017
Spine  6.98216 1.81761 -0.259605
Spine1  4.28907 3.02736 -5.70869
HEad  -17.9498 -10.3993 2.40655
LeftShoulder1  -0.44148 4.61922 -34.7575
LeftArm  5.4772 23.6482 -38.4301
LeftForeArm  15.8208 -21.0769 -4.48458
LeftHand  -0.0477353 10.0718 0.180725
RightShoulder  3.27796 -15.8969 -31.5492
RightArm  14.966 -5.95611 99.7084
RightForeArm  6.15648 14.328 8.70989
RightHand  -0.307727 4.65074 -3.8244
LeftUpLeg  -4.39564 13.6666 2.51667
LeftLeg  13.9023 18.8493 0.294873
LeftFoot  -4.32875 -0.608279 10.3229
LeftToes  1.28511e-009 -3.60458e-011 6.16399e-011
440
root  86.5317 39.1378 0.0370929 0.378357 -5.77255 1.96521
RightUpLeg  -8.76992 -38.8624 -7.17528
RightLeg  16.5809 -5.07626 -1.68546
RightFoot  -5.57907 -0.139831 2.00897
RightToes  -3.31784e-009 0 -3.6325e-017
Spine  7.98152 2.28027 -1.84008
Spine1  3.48401 2.94777 -3.5388
HEad  -15.7612 -10.315 2.60604
LeftShoulder1  -0.430386 4.53588 -35.5017
LeftArm  4.9524 23.1207 -37.4027
LeftForeArm  15.8792 -20.9322 -4.5053
LeftHand  0.00284535 10.2971 1.32744
RightShoulder  -1.28943 -6.93777 19.7525
RightArm  32.133 2.6591 49.3631
RightForeArm  -1.35844 19.1301 6.15071
RightHand  -0.1987 5.63125 -2.40942
LeftUpLeg  -2.32891 12.4908 2.19681
LeftLeg  12.9293 28.2668 0.862934
LeftFoot  -4.09621 -0.592612 9.73373
LeftToes  1.28511e-009 -3.60458e-011 6.16399e-011
441
root  86.7881 39.1676 -0.0414138 -0.165118 -14.6159 1.96371
RightUpLeg  -10.5699 -44.235 -3.44332
RightLeg  16.8549 -8.30515 -2.67512
RightFoot  -6.10085 -0.0740101 0.724807
RightToes  -3.31784e-009 0 -3.6325e-017
Spine  8.92884 3.01892 -3.83928
Spine1  2.8549 3.00253 -0.793595
HEad  -13.8913 -9.99867 1.97918
LeftShoulder1  -0.477967 4.62085 -36.5885
LeftArm  4.80074 21.959 -35.7878
LeftForeArm  14.2742 -20.2602 -4.77516
LeftHand  0.0348628 10.5613 1.99226
RightShoulder  -1.30087 -6.98496 30.6921
RightArm  33.7481 3.13391 40.3817
RightForeArm  0.0134482 21.6962 5.04931
RightHand  -0.174322 6.14407 -2.08666
LeftUpLeg  -0.734663 12.4471 2.04682
LeftLeg  12.6382 36.9067 1.57414
LeftFoot  -3.65016 -0.589224 9.00683
LeftToes  1.28511e-009 -3.60458e-011 6.16399e-011
442
root  87.1216 39.1734 0.0487331 -0.241378 -22.3023 2.57269
RightUpLeg  -12.2173 -48.6513 -0.587338
RightLeg  17.3105 -11.1082 -3.81667
RightFoot  -6.71443 -0.0495786 0.0836091
RightToes  -3.31784e-009 0 -3.6325e-017
Spine  8.1733 2.92765 -4.06511
Spine1  3.2192 2.94453 -0.9387
HEad  -12.7783 -9.8015 2.13595
LeftShoulder1  -0.416976 4.48339 -36.3451
LeftArm  3.40402 21.4494 -35.181
LeftForeArm  16.2958 -19.5212 -4.887
LeftHand  0.0473566 10.1866 2.38467
RightShoulder  -1.42882 -7.43551 29.8435
RightArm  35.1817 1.17255 42.4652
RightForeArm  -1.08459 21.6801 5.19547
RightHand  -0.127346 5.73023 -1.67943
LeftUpLeg  -0.113191 10.8817 -0.0259143
LeftLeg  12.6697 44.1725 3.97173
LeftFoot  -2.69349 -0.618901 8.24335
LeftToes  1.28511e-009 -3.60458e-011 6.16399e-011
443
root  87.4082 39.0996 0.210095 -0.677417 -29.1518 3.22131
RightUpLeg  -12.4267 -50.0657 0.662035
RightLeg  17.7905 -11.9262 -4.21403
RightFoot  -8.28527 -0.0410198 -0.56431
RightToes  -3.31784e-009 0 -3.6325e-017
Spine  7.97862 2.47074 -2.62596
Spine1  3.11696 2.89131 -2.51233
HEad  -11.9307 -9.60693 2.22864
LeftShoulder1  -0.217228 4.0266 -35.2386
LeftArm  2.4921 21.585 -35.14
LeftForeArm  16.1005 -19.2576 -4.93429
LeftHand  0.0482243 9.81483 2.52474
RightShoulder  -1.66229 -7.80378 32.1803
RightArm  35.0078 -0.771558 41.5133
RightForeArm  -2.00759 20.5899 5.5467
RightHand  -0.309961 5.07471 -3.28761
LeftUpLeg  1.82703 9.30692 -1.70117
LeftLeg  11.376 47.7353 4.97729
LeftFoot  -3.16006 0.0685814 -0.650241
LeftToes  1.28511e-009 -3.60458e-011 6.16399e-011
